<svg xmlns="http://www.w3.org/2000/svg" xmlns:xlink="http://www.w3.org/1999/xlink" version="1.1" x="0px" y="0px" viewBox="0 0 512 512" style="enable-background:new 0 0 512 512;" xml:space="preserve" preserveAspectRatio="none" width="100%" height="100%" class="" fill="rgba(255, 214, 0, 1)"><style type="text/css">
	.cls-BapTrQ{display:none;}
	.cls-dYAyRD{display:inline;}
	.cls-DMAvoM{fill:none;stroke:#000000;stroke-width:0.1;stroke-miterlimit:10;}
</style><g class="cls-BapTrQ"><g class="cls-dYAyRD"><rect class="cls-DMAvoM cls-klZYjU" width="512" height="512"></rect><line class="cls-DMAvoM cls-klZYjU" x1="0" y1="496" x2="512" y2="496"></line><line class="cls-DMAvoM cls-klZYjU" x1="0" y1="480" x2="512" y2="480"></line><line class="cls-DMAvoM cls-klZYjU" x1="0" y1="464" x2="512" y2="464"></line><line class="cls-DMAvoM cls-klZYjU" x1="0" y1="448" x2="512" y2="448"></line><line class="cls-DMAvoM cls-klZYjU" x1="0" y1="432" x2="512" y2="432"></line><line class="cls-DMAvoM cls-klZYjU" x1="0" y1="416" x2="512" y2="416"></line><line class="cls-DMAvoM cls-klZYjU" x1="0" y1="400" x2="512" y2="400"></line><line class="cls-DMAvoM cls-klZYjU" x1="0" y1="384" x2="512" y2="384"></line><line class="cls-DMAvoM cls-klZYjU" x1="0" y1="368" x2="512" y2="368"></line><line class="cls-DMAvoM cls-klZYjU" x1="0" y1="352" x2="512" y2="352"></line><line class="cls-DMAvoM cls-klZYjU" x1="0" y1="336" x2="512" y2="336"></line><line class="cls-DMAvoM cls-klZYjU" x1="0" y1="320" x2="512" y2="320"></line><line class="cls-DMAvoM cls-klZYjU" x1="0" y1="304" x2="512" y2="304"></line><line class="cls-DMAvoM cls-klZYjU" x1="0" y1="288" x2="512" y2="288"></line><line class="cls-DMAvoM cls-klZYjU" x1="0" y1="272" x2="512" y2="272"></line><line class="cls-DMAvoM cls-klZYjU" x1="0" y1="256" x2="512" y2="256"></line><line class="cls-DMAvoM cls-klZYjU" x1="0" y1="240" x2="512" y2="240"></line><line class="cls-DMAvoM cls-klZYjU" x1="0" y1="224" x2="512" y2="224"></line><line class="cls-DMAvoM cls-klZYjU" x1="0" y1="208" x2="512" y2="208"></line><line class="cls-DMAvoM cls-klZYjU" x1="0" y1="192" x2="512" y2="192"></line><line class="cls-DMAvoM cls-klZYjU" x1="0" y1="176" x2="512" y2="176"></line><line class="cls-DMAvoM cls-klZYjU" x1="0" y1="160" x2="512" y2="160"></line><line class="cls-DMAvoM cls-klZYjU" x1="0" y1="144" x2="512" y2="144"></line><line class="cls-DMAvoM cls-klZYjU" x1="0" y1="128" x2="512" y2="128"></line><line class="cls-DMAvoM cls-klZYjU" x1="0" y1="112" x2="512" y2="112"></line><line class="cls-DMAvoM cls-klZYjU" x1="0" y1="96" x2="512" y2="96"></line><line class="cls-DMAvoM cls-klZYjU" x1="0" y1="80" x2="512" y2="80"></line><line class="cls-DMAvoM cls-klZYjU" x1="0" y1="64" x2="512" y2="64"></line><line class="cls-DMAvoM cls-klZYjU" x1="0" y1="48" x2="512" y2="48"></line><line class="cls-DMAvoM cls-klZYjU" x1="0" y1="32" x2="512" y2="32"></line><line class="cls-DMAvoM cls-klZYjU" x1="0" y1="16" x2="512" y2="16"></line><line class="cls-DMAvoM cls-klZYjU" x1="496" y1="0" x2="496" y2="512"></line><line class="cls-DMAvoM cls-klZYjU" x1="480" y1="0" x2="480" y2="512"></line><line class="cls-DMAvoM cls-klZYjU" x1="464" y1="0" x2="464" y2="512"></line><line class="cls-DMAvoM cls-klZYjU" x1="448" y1="0" x2="448" y2="512"></line><line class="cls-DMAvoM cls-klZYjU" x1="432" y1="0" x2="432" y2="512"></line><line class="cls-DMAvoM cls-klZYjU" x1="416" y1="0" x2="416" y2="512"></line><line class="cls-DMAvoM cls-klZYjU" x1="400" y1="0" x2="400" y2="512"></line><line class="cls-DMAvoM cls-klZYjU" x1="384" y1="0" x2="384" y2="512"></line><line class="cls-DMAvoM cls-klZYjU" x1="368" y1="0" x2="368" y2="512"></line><line class="cls-DMAvoM cls-klZYjU" x1="352" y1="0" x2="352" y2="512"></line><line class="cls-DMAvoM cls-klZYjU" x1="336" y1="0" x2="336" y2="512"></line><line class="cls-DMAvoM cls-klZYjU" x1="320" y1="0" x2="320" y2="512"></line><line class="cls-DMAvoM cls-klZYjU" x1="304" y1="0" x2="304" y2="512"></line><line class="cls-DMAvoM cls-klZYjU" x1="288" y1="0" x2="288" y2="512"></line><line class="cls-DMAvoM cls-klZYjU" x1="272" y1="0" x2="272" y2="512"></line><line class="cls-DMAvoM cls-klZYjU" x1="256" y1="0" x2="256" y2="512"></line><line class="cls-DMAvoM cls-klZYjU" x1="240" y1="0" x2="240" y2="512"></line><line class="cls-DMAvoM cls-klZYjU" x1="224" y1="0" x2="224" y2="512"></line><line class="cls-DMAvoM cls-klZYjU" x1="208" y1="0" x2="208" y2="512"></line><line class="cls-DMAvoM cls-klZYjU" x1="192" y1="0" x2="192" y2="512"></line><line class="cls-DMAvoM cls-klZYjU" x1="176" y1="0" x2="176" y2="512"></line><line class="cls-DMAvoM cls-klZYjU" x1="160" y1="0" x2="160" y2="512"></line><line class="cls-DMAvoM cls-klZYjU" x1="144" y1="0" x2="144" y2="512"></line><line class="cls-DMAvoM cls-klZYjU" x1="128" y1="0" x2="128" y2="512"></line><line class="cls-DMAvoM cls-klZYjU" x1="112" y1="0" x2="112" y2="512"></line><line class="cls-DMAvoM cls-klZYjU" x1="96" y1="0" x2="96" y2="512"></line><line class="cls-DMAvoM cls-klZYjU" x1="80" y1="0" x2="80" y2="512"></line><line class="cls-DMAvoM cls-klZYjU" x1="64" y1="0" x2="64" y2="512"></line><line class="cls-DMAvoM cls-klZYjU" x1="48" y1="0" x2="48" y2="512"></line><line class="cls-DMAvoM cls-klZYjU" x1="32" y1="0" x2="32" y2="512"></line><line class="cls-DMAvoM cls-klZYjU" x1="16" y1="0" x2="16" y2="512"></line></g></g><path d="M256,6C117.9,6,6,117.9,6,256s111.9,250,250,250s250-111.9,250-250S394.1,6,256,6z M401.1,354.5l-39.6,39.6  c-12.1,12-30.4,15.3-45.9,8.1c-35.6-16.5-83.5-44.7-128.7-92.2c-38.2-40.2-62.1-81.3-77.1-113.5c-7.2-15.5-4-33.9,8.1-46l39.6-39.6  c6.5-6.6,17.1-6.6,23.7,0l35.5,35.5c6.6,6.5,6.6,17.1,0.1,23.8l-26.6,26.6c8.7,18.1,23,42.2,45.6,66.4c28.7,30.6,58.7,48.3,79,58.2  l26.6-26.6c6.5-6.6,17.1-6.6,23.7,0l36,36C407.7,337.3,407.7,347.9,401.1,354.5z"></path><defs><style>.cls-klZYjU {fill: inherit !important;}</style></defs></svg>